HIERARCHY
ROOT Hips
{
  OFFSET 5.84602e-005 68.8428 3.50346
  CHANNELS 6 Xposition Yposition Zposition Zrotation Xrotation Yrotation
  JOINT Spine
  {
    OFFSET 0 8.597 -4.6522
    CHANNELS 3 Zrotation Xrotation Yrotation
    JOINT Spine1
    {
      OFFSET 0 7.8454 0.4098
      CHANNELS 3 Zrotation Xrotation Yrotation
      JOINT Spine2
      {
        OFFSET 0 9.7078 -2.1609
        CHANNELS 3 Zrotation Xrotation Yrotation
        JOINT Neck
        {
          OFFSET 0 21.8761 -0.4549
          CHANNELS 3 Zrotation Xrotation Yrotation
          JOINT Head
          {
            OFFSET 0 12.3537 3.3602
            CHANNELS 3 Zrotation Xrotation Yrotation
            End Site
            {
              OFFSET 0.0001 18.9506 0.5657
            }
          }
        }
        JOINT LeftShoulder
        {
          OFFSET 2.2086 21.1115 7.2329
          CHANNELS 3 Zrotation Xrotation Yrotation
          JOINT LeftArm
          {
            OFFSET 13.1193 3.0282 -4.8998
            CHANNELS 3 Zrotation Xrotation Yrotation
            JOINT LeftForeArm
            {
              OFFSET 27.4081 -0.0973053 -0.2375
              CHANNELS 3 Zrotation Xrotation Yrotation
              JOINT LeftHand
              {
                OFFSET 22.8641 0.0662994 -0.1369
                CHANNELS 3 Zrotation Xrotation Yrotation
                JOINT LeftHandIndex1
                {
                  OFFSET 8.8614 0.775009 2.4612
                  CHANNELS 3 Zrotation Xrotation Yrotation
                  JOINT LeftHandIndex2
                  {
                    OFFSET 3.3146 -0.808304 0.5841
                    CHANNELS 3 Zrotation Xrotation Yrotation
                    JOINT LeftHandIndex3
                    {
                      OFFSET 2.2628 -0.552002 0.3989
                      CHANNELS 3 Zrotation Xrotation Yrotation
                      End Site
                      {
                        OFFSET 1.6102 -0.4807 0.2612
                      }
                    }
                  }
                }
                JOINT LeftHandMiddle1
                {
                  OFFSET 8.9937 0.895004 0.2143
                  CHANNELS 3 Zrotation Xrotation Yrotation
                  JOINT LeftHandMiddle2
                  {
                    OFFSET 4.0984 0.0113983 -0.0242
                    CHANNELS 3 Zrotation Xrotation Yrotation
                    JOINT LeftHandMiddle3
                    {
                      OFFSET 2.2716 0.00689697 -0.0138001
                      CHANNELS 3 Zrotation Xrotation Yrotation
                      End Site
                      {
                        OFFSET 2.0404 -0.1441 0.0027
                      }
                    }
                  }
                }
                JOINT LeftHandRing1
                {
                  OFFSET 8.5234 0.597198 -2.0164
                  CHANNELS 3 Zrotation Xrotation Yrotation
                  JOINT LeftHandRing2
                  {
                    OFFSET 3.7188 -0.188293 -0.2328
                    CHANNELS 3 Zrotation Xrotation Yrotation
                    JOINT LeftHandRing3
                    {
                      OFFSET 2.1191 -0.106598 -0.1332
                      CHANNELS 3 Zrotation Xrotation Yrotation
                      End Site
                      {
                        OFFSET 1.8737 -0.2304 -0.0886
                      }
                    }
                  }
                }
                JOINT LeftHandPinky1
                {
                  OFFSET 7.9094 -0.601089 -3.4825
                  CHANNELS 3 Zrotation Xrotation Yrotation
                  JOINT LeftHandPinky2
                  {
                    OFFSET 2.2874 -0.477005 -0.6314
                    CHANNELS 3 Zrotation Xrotation Yrotation
                    JOINT LeftHandPinky3
                    {
                      OFFSET 1.6774 -0.349396 -0.4633
                      CHANNELS 3 Zrotation Xrotation Yrotation
                      End Site
                      {
                        OFFSET 1.4888 -0.4091 -0.3416
                      }
                    }
                  }
                }
                JOINT LeftHandThumb1
                {
                  OFFSET 1.833 -1.3875 1.3896
                  CHANNELS 3 Zrotation Xrotation Yrotation
                  JOINT LeftHandThumb2
                  {
                    OFFSET 3.4129 -1.121 2.5732
                    CHANNELS 3 Zrotation Xrotation Yrotation
                    JOINT LeftHandThumb3
                    {
                      OFFSET 2.2474 -0.804199 1.6192
                      CHANNELS 3 Zrotation Xrotation Yrotation
                      End Site
                      {
                        OFFSET 1.6527 -0.5689 1.1317
                      }
                    }
                  }
                }
              }
            }
          }
        }
        JOINT RightShoulder
        {
          OFFSET -2.2086 21.1115 7.2329
          CHANNELS 3 Zrotation Xrotation Yrotation
          JOINT RightArm
          {
            OFFSET -13.1216 3.0287 -4.9007
            CHANNELS 3 Zrotation Xrotation Yrotation
            JOINT RightForeArm
            {
              OFFSET -27.4081 -0.0973053 -0.2375
              CHANNELS 3 Zrotation Xrotation Yrotation
              JOINT RightHand
              {
                OFFSET -22.8641 0.0664063 -0.1369
                CHANNELS 3 Zrotation Xrotation Yrotation
                JOINT RightHandIndex1
                {
                  OFFSET -8.8614 0.774994 2.4612
                  CHANNELS 3 Zrotation Xrotation Yrotation
                  JOINT RightHandIndex2
                  {
                    OFFSET -3.3146 -0.808304 0.5841
                    CHANNELS 3 Zrotation Xrotation Yrotation
                    JOINT RightHandIndex3
                    {
                      OFFSET -2.2628 -0.552002 0.3989
                      CHANNELS 3 Zrotation Xrotation Yrotation
                      End Site
                      {
                        OFFSET -1.6102 -0.4807 0.2612
                      }
                    }
                  }
                }
                JOINT RightHandMiddle1
                {
                  OFFSET -8.9937 0.894989 0.2143
                  CHANNELS 3 Zrotation Xrotation Yrotation
                  JOINT RightHandMiddle2
                  {
                    OFFSET -4.0984 0.0113983 -0.0242
                    CHANNELS 3 Zrotation Xrotation Yrotation
                    JOINT RightHandMiddle3
                    {
                      OFFSET -2.2716 0.00691223 -0.0138001
                      CHANNELS 3 Zrotation Xrotation Yrotation
                      End Site
                      {
                        OFFSET -2.0404 -0.1441 0.0027
                      }
                    }
                  }
                }
                JOINT RightHandRing1
                {
                  OFFSET -8.5234 0.597198 -2.0164
                  CHANNELS 3 Zrotation Xrotation Yrotation
                  JOINT RightHandRing2
                  {
                    OFFSET -3.7188 -0.188309 -0.2328
                    CHANNELS 3 Zrotation Xrotation Yrotation
                    JOINT RightHandRing3
                    {
                      OFFSET -2.1191 -0.106598 -0.1332
                      CHANNELS 3 Zrotation Xrotation Yrotation
                      End Site
                      {
                        OFFSET -1.8737 -0.2304 -0.0886
                      }
                    }
                  }
                }
                JOINT RightHandPinky1
                {
                  OFFSET -7.9094 -0.601105 -3.4825
                  CHANNELS 3 Zrotation Xrotation Yrotation
                  JOINT RightHandPinky2
                  {
                    OFFSET -2.2874 -0.477005 -0.6314
                    CHANNELS 3 Zrotation Xrotation Yrotation
                    JOINT RightHandPinky3
                    {
                      OFFSET -1.6774 -0.349396 -0.4633
                      CHANNELS 3 Zrotation Xrotation Yrotation
                      End Site
                      {
                        OFFSET -1.4888 -0.4091 -0.3416
                      }
                    }
                  }
                }
                JOINT RightHandThumb1
                {
                  OFFSET -1.833 -1.38751 1.3896
                  CHANNELS 3 Zrotation Xrotation Yrotation
                  JOINT RightHandThumb2
                  {
                    OFFSET -3.41299 -1.12099 2.5732
                    CHANNELS 3 Zrotation Xrotation Yrotation
                    JOINT RightHandThumb3
                    {
                      OFFSET -2.24741 -0.804108 1.6192
                      CHANNELS 3 Zrotation Xrotation Yrotation
                      End Site
                      {
                        OFFSET -1.6527 -0.5689 1.1317
                      }
                    }
                  }
                }
              }
            }
          }
        }
      }
    }
  }
  JOINT RightUpLeg
  {
    OFFSET -9.1966 3.8861 -0.7581
    CHANNELS 3 Zrotation Xrotation Yrotation
    JOINT RightLeg
    {
      OFFSET -0.7359 -41.0265 0
      CHANNELS 3 Zrotation Xrotation Yrotation
      JOINT RightFoot
      {
        OFFSET 0 -40.2855 0
        CHANNELS 3 Zrotation Xrotation Yrotation
        JOINT RightToeBase
        {
          OFFSET 0 -5.6122 11.7359
          CHANNELS 3 Zrotation Xrotation Yrotation
          End Site
          {
            OFFSET 0 0 7.8731
          }
        }
      }
    }
  }
  JOINT LeftUpLeg
  {
    OFFSET 9.1965 3.8864 -0.7581
    CHANNELS 3 Zrotation Xrotation Yrotation
    JOINT LeftLeg
    {
      OFFSET 0.7359 -41.0268 0
      CHANNELS 3 Zrotation Xrotation Yrotation
      JOINT LeftFoot
      {
        OFFSET 0 -40.2855 0
        CHANNELS 3 Zrotation Xrotation Yrotation
        JOINT LeftToeBase
        {
          OFFSET 0 -5.6122 11.7359
          CHANNELS 3 Zrotation Xrotation Yrotation
          End Site
          {
            OFFSET 0 0 7.8731
          }
        }
      }
    }
  }
}
MOTION
Frames:	6
Frame Time:	0.0333333
5.84602e-005 68.8428 3.50346 0 0 -0 0 0 -0 0 0 -0 0 0 -0 0 0 -0 0 0 -0 0 0 -0 0 0 -0 0 0 -0 0 0 -0 0 0 -0 0 0 -0 0 0 -0 0 0 -0 -0.0146107 -8.87603e-005 -2.63497e-007 2.99804e-018 -2.42657e-020 -1.42182e-022 0 0 -0 -0.0187562 -0.001176 5.858e-005 5.06224e-018 3.88251e-019 1.21329e-020 0 0 -0 -0.012269 -0.00324817 0.000675346 -1.74678e-018 3.88251e-019 -0 0 0 -0 0 0 -0 0 0 -0 0 0 -0 0 0 -0 0 0 -0 0 0 -0 0 0 -0 0 0 -0 0 0 -0 0 0 -0 0.0149955 -9.10982e-005 2.64101e-007 -9.69331e-018 1.21329e-020 -4.7394e-023 0 0 -0 0.0189956 -0.00119102 -5.96516e-005 -5.41541e-019 0 2.42657e-020 0 0 -0 0.0122698 -0.00324857 -0.000673756 -2.00796e-019 0 -1.94126e-019 0 0 -0 0 0 -0 0 0 -0 3.39842 1.33031 -0.0637918 -5.65207e-008 0.834868 -0.000436188 -3.39935 -2.16518 -0.0642563 -8.89002e-024 -1.18485e-023 -1.48106e-024 -3.39844 1.35642 0.0640283 -3.18788e-007 0.782166 -0.000588827 3.39931 -2.13858 0.0634662 1.1399e-023 0 -0 
-0.392018 64.5828 5.01877 0 0.0656662 -0 -0.3872 -1.49408 2.40323 -0.711712 -3.00321 4.79879 -0.711711 -3.00321 4.79879 10.3682 0.032862 -0.00814917 2.23647e-006 -0.249096 2.12785e-006 33.7641 -4.0089 -16.8678 -49.0437 2.00815 -11.7173 -23.9862 0.326616 -97.8502 -22.2484 0.0227833 0.0366861 -7.03427e-007 3.82368e-007 2.88074e-007 -6.36111e-015 7.95139e-015 3.18055e-015 -7.03427e-007 3.82368e-007 2.88074e-007 -7.03427e-007 3.82368e-007 2.88074e-007 -0.0146723 -8.63913e-005 -6.34262e-006 -7.03436e-007 3.82331e-007 2.88123e-007 -7.03427e-007 3.82368e-007 2.88074e-007 -0.0188186 -0.00118321 6.4523e-005 -7.03435e-007 3.8232e-007 2.88144e-007 -7.03427e-007 3.82368e-007 2.88074e-007 -0.0123828 -0.00328043 0.000688682 -7.03424e-007 3.82339e-007 2.88136e-007 -7.03427e-007 3.82368e-007 2.88074e-007 -6.36111e-015 7.95139e-015 3.18055e-015 -7.03427e-007 3.82368e-007 2.88074e-007 11.747 0.317649 11.1342 44.2012 -0.446863 12.1615 -4.99121 -2.01908 44.1439 41.6604 -7.09062 -4.76817 -3.65792e-007 -3.47029e-007 3.94575e-007 1.21931e-007 1.15676e-007 -1.31525e-007 -3.65792e-007 -3.47029e-007 3.94575e-007 -3.65792e-007 -3.47029e-007 3.94575e-007 0.014982 -8.81106e-005 5.07893e-006 -3.65791e-007 -3.46978e-007 3.9462e-007 -3.65792e-007 -3.47029e-007 3.94575e-007 0.0189521 -0.00118694 -5.85202e-005 -3.65786e-007 -3.46964e-007 3.94636e-007 -3.65792e-007 -3.47029e-007 3.94575e-007 0.0122734 -0.00324894 -0.000678117 -3.65778e-007 -3.46989e-007 3.94622e-007 -3.65792e-007 -3.47029e-007 3.94575e-007 1.21931e-007 1.15676e-007 -1.31525e-007 -3.65792e-007 -3.47029e-007 3.94575e-007 -11.8023 -14.189 -10.1857 -0.254929 26.9975 0.468676 15.3297 -9.66731 -0.803712 4.29624e-007 -3.6871e-009 5.55818e-009 3.87113 -17.6422 10.2847 2.05633 37.1479 -1.43706 -8.94198 -18.5873 0.755435 -6.65219e-008 -7.17944e-008 -1.61298e-006 
-0.564506 62.5947 5.77432 -0 -0.2298 -0 -0.562181 -2.00456 3.4857 -1.00222 -4.03944 6.95804 -1.00222 -4.03944 6.95803 15.034 -0.114913 0.0286662 3.76553e-007 -0.327095 1.55479e-006 48.3037 -5.74667 -24.2856 -70.7178 2.77975 -17.0119 -33.5742 2.63248 -141.818 -32.1393 -0.0796317 -0.128475 -1.45065e-006 3.30914e-006 -1.15212e-007 6.04209e-007 -3.73998e-006 7.17665e-007 -2.10085e-006 3.89452e-006 1.54353e-007 -1.45065e-006 3.30914e-006 -1.15212e-007 -0.0147127 -9.5248e-005 1.39161e-006 -1.45081e-006 3.30915e-006 -1.14786e-007 -1.45065e-006 3.30914e-006 -1.15212e-007 -0.018817 -0.00118465 5.82163e-005 -1.45085e-006 3.30915e-006 -1.14653e-007 -1.45065e-006 3.30914e-006 -1.15212e-007 -0.0121354 -0.00321823 0.000672224 -2.09945e-006 3.89488e-006 1.54748e-007 -1.45065e-006 3.30914e-006 -1.15212e-007 6.04209e-007 -3.73998e-006 7.17665e-007 -2.10085e-006 3.89452e-006 1.54353e-007 16.7759 -0.0445874 16.1458 64.2733 -0.581215 17.6642 -6.38556 -1.74455 64.0954 60.0395 -10.4172 -7.04361 -7.95139e-016 3.97569e-016 -1.44119e-015 -5.77686e-007 2.75392e-007 5.30617e-007 5.77686e-007 -2.75392e-007 -5.30617e-007 -7.95139e-016 3.97569e-016 -1.44119e-015 0.0150527 -9.29827e-005 1.08133e-006 -2.79318e-032 1.19271e-015 1.3418e-015 -7.95139e-016 3.97569e-016 -1.44119e-015 0.019018 -0.00119438 -5.86752e-005 -3.18055e-015 3.97569e-016 3.27995e-015 -7.95139e-016 3.97569e-016 -1.44119e-015 0.0123335 -0.00326304 -0.000669038 5.76605e-007 -2.75164e-007 -5.30546e-007 -7.95139e-016 3.97569e-016 -1.44119e-015 -5.77686e-007 2.75392e-007 5.30617e-007 5.77686e-007 -2.75392e-007 -5.30617e-007 -20.3309 -20.3486 -15.2067 -0.677737 38.2571 0.775901 23.7798 -12.8078 -1.03086 -2.02673e-006 -6.92008e-008 2.13541e-006 9.23702 -25.0866 15.6879 4.23835 52.5267 -2.84917 -14.4169 -25.5605 1.10373 9.65713e-009 5.23432e-008 3.76283e-009 
-0.526337 62.9467 5.77104 -0 -0.886494 -0 -0.484505 -1.59848 3.24932 -0.878072 -3.22182 6.48884 -0.878073 -3.22182 6.48884 13.9975 -0.443644 0.110571 7.25852e-007 -0.233986 1.80162e-006 45.3548 -5.87198 -22.1127 -65.6221 2.47001 -15.8587 -31.7957 1.92252 -131.989 -29.6745 -0.30757 -0.495326 -1.59221e-006 2.24462e-007 5.18226e-007 0 0 -6.36111e-015 -1.59221e-006 2.24463e-007 5.18226e-007 -1.59221e-006 2.24462e-007 5.18226e-007 -0.0146548 -8.77586e-005 3.58326e-007 -1.59224e-006 2.24396e-007 5.18256e-007 -1.59221e-006 2.24462e-007 5.18226e-007 -0.0188706 -0.00118786 5.87414e-005 -1.59224e-006 2.24375e-007 5.1828e-007 -1.59221e-006 2.24462e-007 5.18226e-007 -0.012269 -0.00324625 0.000673938 -1.91565e-006 1.21008e-006 2.93224e-007 -1.59221e-006 2.24462e-007 5.18226e-007 0 0 -6.36111e-015 -1.59221e-006 2.24463e-007 5.18226e-007 15.1485 -1.07287 15.0352 60.0802 -0.439586 16.5068 -6.01941 -1.77314 59.8414 56.0321 -10.0715 -6.68938 1.59028e-015 7.7526e-015 -2.55438e-014 -5.93423e-007 -2.15585e-007 5.70655e-007 1.59028e-015 -1.19271e-015 5.1684e-015 1.59028e-015 7.7526e-015 -2.55438e-014 0.0150064 -9.33621e-005 -1.55306e-007 1.59028e-015 9.93923e-016 -3.97569e-016 1.59028e-015 7.7526e-015 -2.55438e-014 0.0190275 -0.00119435 -6.00539e-005 -1.59028e-015 9.93923e-016 -2.23633e-015 1.59028e-015 7.7526e-015 -2.55438e-014 0.012246 -0.00324077 -0.000674738 3.18055e-015 -7.95139e-016 4.47266e-016 1.59028e-015 7.7526e-015 -2.55438e-014 -5.93423e-007 -2.15585e-007 5.70655e-007 1.59028e-015 -1.19271e-015 5.1684e-015 -18.3489 -18.4375 -13.9439 -0.659253 36.1779 0.751247 21.9785 -12.333 -0.753829 8.31896e-007 2.55811e-008 -1.68447e-006 7.92237 -22.8094 14.3812 3.744 49.4294 -2.51962 -13.2839 -24.2384 0.893061 7.79582e-007 -1.72256e-007 -3.38291e-006 
-0.526192 62.874 5.90535 -0 -1.47797 -0 -0.45444 -1.35712 3.25208 -0.831471 -2.73776 6.49608 -0.831471 -2.73775 6.49608 13.9976 -0.739602 0.184391 -7.73587e-008 -0.171984 4.79676e-006 45.5553 -6.26901 -21.6854 -65.3832 2.3524 -15.8778 -31.9263 1.77679 -131.945 -29.4573 -0.514273 -0.824732 1.59028e-015 3.18055e-015 -3.18055e-015 -3.18055e-015 0 -3.18055e-015 -1.59028e-015 -3.18055e-015 -0 1.59028e-015 3.18055e-015 -3.18055e-015 -0.0146537 -8.57117e-005 5.29778e-007 0 0 -0 1.59028e-015 3.18055e-015 -3.18055e-015 -0.0187385 -0.00117853 5.87981e-005 -6.36111e-015 0 3.18055e-015 1.59028e-015 3.18055e-015 -3.18055e-015 -0.0122752 -0.00324825 0.000678331 -3.27595e-007 9.85885e-007 -2.30687e-007 1.59028e-015 3.18055e-015 -3.18055e-015 -3.18055e-015 0 -3.18055e-015 -1.59028e-015 -3.18055e-015 -0 14.7347 -1.98104 15.0296 60.3008 -0.34699 16.56 -5.96631 -1.68195 59.986 56.0753 -10.3907 -6.81757 -4.77083e-015 7.15625e-015 -3.27995e-014 5.93395e-007 2.15492e-007 -5.70763e-007 1.59028e-015 -3.97569e-016 -2.28602e-015 -4.77083e-015 7.15625e-015 -3.27995e-014 0.0149338 -9.65264e-005 -4.00722e-006 1.50866e-031 -1.39149e-015 6.21202e-015 -4.77083e-015 7.15625e-015 -3.27995e-014 0.018991 -0.0011859 -5.66011e-005 -5.1031e-007 -2.37015e-007 -6.77463e-007 -4.77083e-015 7.15625e-015 -3.27995e-014 0.0122948 -0.00324804 -0.000678309 3.18055e-015 9.93923e-016 1.39149e-015 -4.77083e-015 7.15625e-015 -3.27995e-014 5.93395e-007 2.15492e-007 -5.70763e-007 1.59028e-015 -3.97569e-016 -2.28602e-015 -18.3512 -17.9657 -13.8578 -0.743226 36.5007 0.795641 22.0439 -12.5045 -0.57017 2.68359e-015 0 3.18055e-015 7.92417 -22.2698 14.3509 3.83394 49.6722 -2.5843 -13.3453 -24.4169 0.790948 8.76926e-009 5.25114e-008 3.60025e-009 
-0.526053 62.8021 6.03932 -0 -2.06979 -0 -0.424291 -1.11523 3.2545 -0.784815 -2.25249 6.50252 -0.784815 -2.25249 6.50252 13.9982 -1.03606 0.258228 2.23526e-007 -0.109978 9.07414e-007 45.759 -6.66479 -21.2561 -65.1444 2.2347 -15.8965 -32.0568 1.63093 -131.902 -29.2413 -0.722291 -1.15346 1.59028e-015 -6.36111e-015 -0 0 0 -0 1.59028e-015 0 -3.18055e-015 1.59028e-015 -6.36111e-015 -0 -0.0145485 -8.51795e-005 -1.18359e-006 7.95139e-015 6.36111e-015 -3.18055e-015 1.59028e-015 -6.36111e-015 -0 -0.0187815 -0.00118154 6.067e-005 1.59028e-015 -6.36111e-015 3.18055e-015 1.59028e-015 -6.36111e-015 -0 -0.0122098 -0.00323508 0.000672831 1.59028e-015 0 -0 1.59028e-015 -6.36111e-015 -0 0 0 -0 1.59028e-015 0 -3.18055e-015 14.3199 -2.89063 15.0174 60.5214 -0.254162 16.6128 -5.91339 -1.59066 60.1306 56.1178 -10.7101 -6.94567 3.18055e-015 -1.98785e-016 -9.24349e-015 -5.93365e-007 -2.15409e-007 5.70864e-007 -7.95139e-015 3.97569e-015 -1.02871e-014 3.18055e-015 -1.98785e-016 -9.24349e-015 0.014965 -9.03489e-005 5.28253e-006 3.18055e-015 1.39149e-015 -1.78906e-015 3.18055e-015 -1.98785e-016 -9.24349e-015 0.0189802 -0.00119486 -6.08175e-005 -3.18055e-015 -7.95139e-016 -5.66536e-015 3.18055e-015 -1.98785e-016 -9.24349e-015 0.0123377 -0.00326608 -0.000682956 1.59028e-015 1.98785e-016 -8.89561e-015 3.18055e-015 -1.98785e-016 -9.24349e-015 -5.93365e-007 -2.15409e-007 5.70864e-007 -7.95139e-015 3.97569e-015 -1.02871e-014 -18.3541 -17.4934 -13.7719 -0.827802 36.8228 0.840711 22.1099 -12.6755 -0.386257 -9.2539e-009 2.19511e-007 1.67323e-006 7.92639 -21.7293 14.3208 3.92453 49.9141 -2.6498 -13.4071 -24.5952 0.688528 -2.5916e-008 1.00892e-008 -1.68757e-006 
